<svg xmlns="http://www.w3.org/2000/svg" xmlns:xlink="http://www.w3.org/1999/xlink" width="0" height="0">
    <symbol id="crw-handle-bottom" viewBox="-10 -10 20 20" overflow="visible">
        <path id="crw-handle-path" d="M -10,-50 V 0 A 10,10 0 0 0 10,0 V -50 H 8 V 0 A 8,8 0 0 1 -8,0 V -50 Z M 0,-8 -6,-2 H -4 L 0,-6 4,-2 H 6 Z M -4,0 H -6 L 0,6 6,0 H 4 L 0,4 Z"/>
    </symbol>
    <symbol id="crw-handle-left" viewBox="-10 -10 20 20" overflow="visible">
        <use xlink:href="#crw-handle-path" transform="rotate(90)"/>
    </symbol>
    <symbol id="crw-handle-top" viewBox="-10 -10 20 20" overflow="visible">
        <use xlink:href="#crw-handle-path" transform="rotate(180)"/>
    </symbol>
    <symbol id="crw-handle-right" viewBox="-10 -10 20 20" overflow="visible">
        <use xlink:href="#crw-handle-path" transform="rotate(-90)"/>
    </symbol>
    <symbol id="crw-btn-fill" viewBox="0 0 31 31">
        <path d="M 0,15 C 1,16 2,17 4,17 H 7.5 V 13.7 L 13.3,19 7.5,24.3 V 21 H 4 C 2,21 0,20 0,18 Z M 10.8,7.7 9,12.4 13,16.1 H 14.3 L 14.9,17.9 H 17.6 L 13.8,7.7 Z M 12.3,10.3 13.5,13.9 H 11.1 Z M 18.7,19.5 17.7,20.7 H 23.2 V 22.9 H 14.6 V 20.7 L 15.6,19.5 Z M 18.55,15.9 19.7,14.5 H 18 L 17.2,12.3 H 22.9 V 14.5 L 19.54,18.5 Z M 6,22.5 V 25 H 25 V 6 H 6 V 15.5 H 4 V 6 A 2,2 0 0 1 6,4 H 25 A 2,2 0 0 1 27,6 V 25 A 2,2 0 0 1 25,27 H 6 A 2,2 0 0 1 4,25 V 22.5 Z" />
    </symbol>
    <symbol id="crw-btn-empty" viewBox="0 0 31 31">
        <path d="M 17,17.3 C 18,16.3 19,15.3 21,15.3 H 24.5 V 18.6 L 30.3,13.3 24.5,8 V 11.3 H 21 C 19,11.3 17,12.3 17,14.3 Z M 25.2,6 H 6 V 25 H 25 V 20.8 L 27,19 V 25 A 2,2 0 0 1 25,27 H 6 A 2,2 0 0 1 4,25 V 6 A 2,2 0 0 1 6,4 H 25 A 2,2 0 0 1 27,6 V 7.6 Z" />
    </symbol>
    <symbol id="crw-btn-trash" viewBox="0 0 31 31">
        <path d="M 13.5,7 H 17.5 A 1,1 0 0 1 17.5,9 H 13.5 A 1,1 0 0 1 13.5,7 Z M 13,5 A 2,2 0 0 0 11,7 L 6,9 V 11 H 25 V 9 L 20,7 A 2,2 0 0 0 18,5 Z M 8.1,12.5 8.5,24 A 2,2 0 0 0 10.5,26 H 20.5 A 2,2 0 0 0 22.5,24 L 22.9,12.5 H 20.9 L 20.5,24 H 18.5 L 18.7,12.5 H 16.7 L 16.5,24 H 14.5 L 14.3,12.5 H 12.3 L 12.5,24 H 10.5 L 10.1,12.5 Z" />
    </symbol>
    <symbol id="crw-btn-restart" viewBox="0 0 31 31">
        <path d="M 23.5,5.5 24.5,13.5 16.5,12.5 18.95,10.03 A 6.5,6.5 0 1 0 21.125,18.75 L 23.719,20.25 A 9.5,9.5 0 1 1 21.125,7.875 Z" />
    </symbol>
    <symbol id="crw-btn-waiting" viewBox="0 0 31 31">
        <path d="M 15.5,4 A 11.5,11.5 0 0 0 15.5,27 11.5,11.5 0 0 0 15.5,4 Z M 15.5,6 A 9.5,9.5 0 0 1 15.5,25 9.5,9.5 0 0 1 15.5,6 Z M 12,22 22,15.5 12,9 Z" />
    </symbol>
    <symbol id="crw-btn-playing" viewBox="0 0 31 31">
        <path d="M 15.5,8 A 9.5,9.5 0 0 0 15.5,27 9.5,9.5 0 0 0 15.5,8 Z M 15.5,10 A 7.5,7.5 0 0 1 15.5,25 7.5,7.5 0 0 1 15.5,10 Z M 15.5,4 A 3,3 0 0 0 15.5,10 3,3 0 0 0 15.5,4 Z M 15.5,6 A 1,1 0 0 1 15.5,8 1,1 0 0 1 15.5,6 Z M 11,11 9,9 7,11 9,13 M 16.5,13 A 1,1 0 0 0 14.5,13 V 16 A 2.2,2.2 0 1 0 16.5,16 Z" />
    </symbol>
    <symbol id="crw-btn-final" viewBox="0 0 31 31">
        <path d="M 15.5,4 A 11.5,11.5 0 0 0 15.5,27 11.5,11.5 0 0 0 15.5,4 Z M 15.5,6 A 9.5,9.5 0 0 1 15.5,25 9.5,9.5 0 0 1 15.5,6 Z M 15.5,7.5 17.73,12.43 23.11,13.03 19.1,16.7 20.2,21.97 15.5,19.3 10.8,21.97 11.89,16.67 7.89,13.03 13.27,12.43 Z" />
    </symbol>
    <symbol id="crw-bullet" viewBox="0 0 17 17">
        <circle cx="8.5" cy="8.5" r="6.5" stroke-width="2" fill="none" />
    </symbol>
</svg>
